<svg width="46" height="46" viewBox="0 0 46 46" fill="none" xmlns="http://www.w3.org/2000/svg">
<path d="M36.8958 23C36.8958 20.4059 36.1697 17.8635 34.7996 15.6607C33.4295 13.4579 31.4702 11.6826 29.1433 10.5357C26.8165 9.38888 24.215 8.91625 21.6335 9.17134C19.0519 9.42644 16.5933 10.3991 14.5359 11.9792H15.8124C16.3208 11.9792 16.8083 12.1811 17.1677 12.5405C17.5272 12.9 17.7291 13.3875 17.7291 13.8958C17.7291 14.4042 17.5272 14.8917 17.1677 15.2511C16.8083 15.6106 16.3208 15.8125 15.8124 15.8125H10.0624C9.55412 15.8125 9.06661 15.6106 8.70716 15.2511C8.34772 14.8917 8.14578 14.4042 8.14578 13.8958V13.4167H8.08061L8.14578 13.317V8.14583C8.14578 7.6375 8.34772 7.14999 8.70716 6.79055C9.06661 6.4311 9.55412 6.22917 10.0624 6.22917C10.5708 6.22917 11.0583 6.4311 11.4177 6.79055C11.7772 7.14999 11.9791 7.6375 11.9791 8.14583V9.11183C15.111 6.619 18.9971 5.2646 22.9999 5.27083C26.5989 5.27133 30.1124 6.36709 33.0736 8.41247C36.0347 10.4578 38.3033 13.356 39.5778 16.7217C40.8522 20.0873 41.0722 23.7612 40.2085 27.2549C39.3448 30.7487 37.4383 33.8968 34.7423 36.2809C32.0464 38.665 28.6887 40.1722 25.1156 40.6022C21.5424 41.0321 17.9231 40.3645 14.7385 38.688C11.554 37.0115 8.95504 34.4055 7.28716 31.2164C5.61929 28.0273 4.96146 24.4061 5.40111 20.8342C5.52186 19.8528 6.39011 19.1667 7.37911 19.1667C8.50995 19.1667 9.32836 20.2573 9.19803 21.3823C8.97836 23.2622 9.14502 25.1671 9.68781 26.9803C10.2306 28.7934 11.138 30.4766 12.3545 31.9265C13.571 33.3765 15.0709 34.5626 16.7621 35.4122C18.4533 36.2619 20.3003 36.757 22.1898 36.8674C24.0792 36.9777 25.9713 36.7009 27.7499 36.054C29.5285 35.407 31.1563 34.4035 32.5333 33.1051C33.9103 31.8066 35.0075 30.2405 35.7577 28.5029C36.5078 26.7652 36.8951 24.8927 36.8958 23ZM24.9166 15.3333C24.9166 14.825 24.7147 14.3375 24.3552 13.978C23.9958 13.6186 23.5083 13.4167 22.9999 13.4167C22.4916 13.4167 22.0041 13.6186 21.6447 13.978C21.2852 14.3375 21.0833 14.825 21.0833 15.3333V24.9167C21.0833 25.425 21.2852 25.9125 21.6447 26.272C22.0041 26.6314 22.4916 26.8333 22.9999 26.8333H28.7499C29.2583 26.8333 29.7458 26.6314 30.1052 26.272C30.4647 25.9125 30.6666 25.425 30.6666 24.9167C30.6666 24.4083 30.4647 23.9208 30.1052 23.5614C29.7458 23.2019 29.2583 23 28.7499 23H24.9166V15.3333Z" fill="white"/>
</svg>
