<svg width="43" height="42" viewBox="0 0 43 42" fill="none" xmlns="http://www.w3.org/2000/svg">
<path d="M42.1101 20.6559L22.5728 0.459962C22.4322 0.314155 22.2651 0.198478 22.0811 0.119552C21.8972 0.0406257 21.7 0 21.5009 0C21.3018 0 21.1046 0.0406257 20.9206 0.119552C20.7367 0.198478 20.5696 0.314155 20.4289 0.459962L0.89172 20.6559C0.322537 21.2447 0 22.0445 0 22.8786C0 24.6107 1.3613 26.0189 3.03564 26.0189H5.09419V40.4299C5.09419 41.2983 5.77247 42 6.61201 42H18.4652V31.009H23.7776V42H36.3898C37.2293 42 37.9076 41.2983 37.9076 40.4299V26.0189H39.9661C40.7725 26.0189 41.5456 25.6902 42.1148 25.0965C43.2959 23.8698 43.2959 21.8826 42.1101 20.6559Z" fill="white"/>
</svg>
