<svg width="39" height="30" viewBox="0 0 39 30" fill="none" xmlns="http://www.w3.org/2000/svg">
<path fill-rule="evenodd" clip-rule="evenodd" d="M5 0C2.23858 0 0 2.23857 0 4.99999V20.4015C0 22.9484 1.90427 25.0505 4.3667 25.3617C4.34466 25.1712 4.33333 24.9774 4.33333 24.781V8.50366C4.33333 5.74223 6.57191 3.50365 9.33333 3.50365H32.7056C32.0696 1.47321 30.1735 0 27.9333 0H5Z" fill="white"/>
<path d="M6.06665 25.8394V9.19708C6.06665 8.09363 6.50037 7.03537 7.27239 6.25511C8.04442 5.47484 9.09151 5.0365 10.1833 5.0365H34.8833C35.9751 5.0365 37.0222 5.47484 37.7942 6.25511C38.5663 7.03537 39 8.09363 39 9.19708V25.8394C39 26.9429 38.5663 28.0011 37.7942 28.7814C37.0222 29.5617 35.9751 30 34.8833 30H10.1833C9.09151 30 8.04442 29.5617 7.27239 28.7814C6.50037 28.0011 6.06665 26.9429 6.06665 25.8394ZM20.0427 11.4708C19.8888 11.3601 19.7078 11.2943 19.5193 11.2807C19.3309 11.267 19.1424 11.3061 18.9745 11.3935C18.8065 11.481 18.6657 11.6134 18.5673 11.7764C18.4689 11.9394 18.4168 12.1266 18.4167 12.3175V22.719C18.4168 22.9099 18.4689 23.0971 18.5673 23.2601C18.6657 23.4231 18.8065 23.5555 18.9745 23.643C19.1424 23.7304 19.3309 23.7695 19.5193 23.7558C19.7078 23.7422 19.8888 23.6764 20.0427 23.5657L27.2469 18.3649C27.3803 18.2687 27.4891 18.1417 27.5641 17.9944C27.6391 17.8471 27.6783 17.6839 27.6783 17.5183C27.6783 17.3526 27.6391 17.1894 27.5641 17.0421C27.4891 16.8948 27.3803 16.7678 27.2469 16.6716L20.0427 11.4708Z" fill="white"/>
</svg>
